<svg width="42" height="32" viewBox="0 0 42 32" fill="none" xmlns="http://www.w3.org/2000/svg">
<path d="M14.0877 3.12235C14.3031 2.3188 14.8517 1.62973 15.6129 1.20665C16.374 0.783565 17.2855 0.661126 18.1467 0.866254L38.8163 5.79224C39.6775 5.99761 40.4179 6.51371 40.8746 7.22706C41.3314 7.9404 41.4672 8.79258 41.2521 9.59618L36.0864 28.882C35.8588 29.673 35.3073 30.3472 34.5507 30.7594C33.7941 31.1716 32.893 31.2889 32.0414 31.0859C31.1897 30.883 30.4558 30.376 29.9976 29.6743C29.5393 28.9726 29.3935 28.1322 29.5915 27.3342L32.5509 15.5013L5.28032 30.6589C4.51899 31.0821 3.60735 31.2045 2.74595 30.9992C1.88456 30.7939 1.14396 30.2778 0.687084 29.5643C0.230209 28.8508 0.0944837 27.9984 0.309764 27.1947C0.525044 26.391 1.07369 25.7017 1.83502 25.2785L29.1056 10.1209L16.5235 6.92629C15.6623 6.72092 14.9219 6.20482 14.4652 5.49147C14.0084 4.77813 13.8726 3.92595 14.0877 3.12235Z" fill="#196FB6"/>
</svg>
