<svg width="38" height="36" viewBox="0 0 38 36" fill="none" xmlns="http://www.w3.org/2000/svg">
<path d="M13.1604 3.57068C13.3563 2.66343 13.8554 1.88542 14.5479 1.40773C15.2404 0.930047 16.0696 0.791806 16.8531 1.02341L35.6576 6.58516C36.4411 6.81704 37.1147 7.39975 37.5302 8.20517C37.9458 9.01058 38.0693 9.97274 37.8736 10.8801L33.174 32.655C32.967 33.5481 32.4652 34.3093 31.7769 34.7747C31.0886 35.2401 30.2688 35.3725 29.494 35.1434C28.7192 34.9142 28.0515 34.3418 27.6346 33.5495C27.2178 32.7573 27.0851 31.8084 27.2652 30.9074L29.9575 17.5473L5.14769 34.6613C4.45506 35.1391 3.62568 35.2773 2.84201 35.0455C2.05834 34.8137 1.38457 34.2309 0.968918 33.4253C0.553269 32.6198 0.42979 31.6574 0.625645 30.7499C0.821499 29.8425 1.32064 29.0642 2.01327 28.5865L26.8231 11.4725L15.3764 7.86559C14.5929 7.63371 13.9193 7.05099 13.5038 6.24558C13.0882 5.44017 12.9647 4.47801 13.1604 3.57068Z" fill="#F3F3F3"/>
</svg>
